{
  "title": "Geordie Shore S10E06 WEB-DL",
  "uid": 11915330,
  "size": 509587738,
  "categoryP": "video",
  "categoryS": "tv_shows",
  "magnet": "?xt=urn:btih:a21681a4d6de5eb17e057aba5822f83ad9d5e0fd&amp;dn=Geordie+Shore+S10E06+WEB-DL&amp;tr=udp%3A%2F%2Ftracker.openbittorrent.com%3A80&amp;tr=udp%3A%2F%2Fopen.demonii.com%3A1337&amp;tr=udp%3A%2F%2Ftracker.coppersurfer.tk%3A6969&amp;tr=udp%3A%2F%2Fexodus.desync.com%3A6969",
  "seeders": 109,
  "leechers": 5,
  "uploader": "jmanwf",
  "files": 2,
  "time": 1431525567,
  "description": "Hamburg is about to feel the full force of Tash on Tours, but are they ready for Marnie kicking off at Aaron?Video\n\n\nVideo\nID : 2\nFormat : AVC\nFormat/Info : Advanced Video Codec\nFormat profile : Baseline@L3\nFormat settings, CABAC : No\nFormat settings, ReFrames : 1 frame\nCodec ID : avc1\nCodec ID/Info : Advanced Video Coding\nDuration : 40mn 58s\nBit rate : 1 530 Kbps\nWidth : 640 pixels\nHeight : 480 pixels\nDisplay aspect ratio : 16:9\nFrame rate mode : Constant\nFrame rate : 25.000 fps\nColor space : YUV\nChroma subsampling : 4:2:0\nBit depth : 8 bits\nScan type : Progressive\nBits/(Pixel*Frame) : 0.199\nStream size : 448 MiB (92%)\nLanguage : English\nEncoded date : UTC 2015-05-13 08:44:38\nTagged date : UTC 2015-05-13 08:44:52\nColor range : Limited\nColor primaries : BT.601 NTSC\nTransfer characteristics : BT.709\nMatrix coefficients : BT.601\n\nAudio\nID : 1\nFormat : AAC\nFormat/Info : Advanced Audio Codec\nFormat profile : LC\nCodec ID : 40\nDuration : 40mn 57s\nDuration_LastFrame : -18ms\nBit rate mode : Variable\nBit rate : 126 Kbps\nMaximum bit rate : 190 Kbps\nChannel(s) : 2 channels\nChannel positions : Front: L R\nSampling rate : 44.1 KHz\nCompression mode : Lossy\nStream size : 36.8 MiB (8%)\nLanguage : English\nEncoded date : UTC 2015-05-13 08:43:25\nTagged date : UTC 2015-05-13 08:44:37\n\nText\nID : 3-CC1\nFormat : EIA-608\nMuxing mode : Final Cut\nCodec ID : c608\nDuration : 40mn 56s\nBit rate mode : Constant\nStream size : 0.00 Byte (0%)\nLanguage : English\nEncoded date : UTC 2015-05-13 08:44:53\nTagged date : UTC 2015-05-13 08:44:55\n\n\n &lt;a href=&quot;\nhttps://itunes.apple.com/gb/tv-season/geordie-shore-season-10/id979550691&quot; rel=&quot;nofollow&quot; target=&quot;_NEW&quot;&gt;\nhttps://itunes.apple.com/gb/tv-season/geordie-shore-season-10/id979550691&lt;/a&gt;",
  "parsed": {
    "xt": "urn:btih:a21681a4d6de5eb17e057aba5822f83ad9d5e0fd",
    "dn": "Geordie Shore S10E06 WEB-DL",
    "tr": [
      "udp://exodus.desync.com:6969",
      "udp://open.demonii.com:1337",
      "udp://tracker.coppersurfer.tk:6969",
      "udp://tracker.openbittorrent.com:80"
    ],
    "infoHash": "a21681a4d6de5eb17e057aba5822f83ad9d5e0fd",
    "infoHashBuffer": {
      "type": "Buffer",
      "data": [
        162,
        22,
        129,
        164,
        214,
        222,
        94,
        177,
        126,
        5,
        122,
        186,
        88,
        34,
        248,
        58,
        217,
        213,
        224,
        253
      ]
    },
    "name": "Geordie Shore S10E06 WEB-DL",
    "announce": [
      "udp://exodus.desync.com:6969",
      "udp://open.demonii.com:1337",
      "udp://tracker.coppersurfer.tk:6969",
      "udp://tracker.openbittorrent.com:80"
    ],
    "urlList": []
  },
  "previous": 4,
  "peers": 1,
  "last_updated": "2016-12-27T08:52:53.271Z"
}